TITLE ""
FILE "Disc4Track42.mp3" MP3
  TRACK 01 AUDIO
    TITLE "Disc4Track42_01"
    INDEX 01 00:00:00
  TRACK 02 AUDIO
    TITLE "Disc4Track42_02"
    INDEX 01 00:01:02
  TRACK 03 AUDIO
    TITLE "Disc4Track42_03"
    INDEX 01 00:03:22
  TRACK 04 AUDIO
    TITLE "Disc4Track42_04"
    INDEX 01 00:04:34
  TRACK 05 AUDIO
    TITLE "Disc4Track42_05"
    INDEX 01 00:09:50
  TRACK 06 AUDIO
    TITLE "Disc4Track42_06"
    INDEX 01 00:10:07
  TRACK 07 AUDIO
    TITLE "Disc4Track42_07"
    INDEX 01 00:11:26
  TRACK 08 AUDIO
    TITLE "Disc4Track42_08"
    INDEX 01 00:12:21
  TRACK 09 AUDIO
    TITLE "Disc4Track42_09"
    INDEX 01 00:13:38
  TRACK 10 AUDIO
    TITLE "Disc4Track42_10"
    INDEX 01 00:18:57
  TRACK 11 AUDIO
    TITLE "Disc4Track42_11"
    INDEX 01 00:19:15
  TRACK 12 AUDIO
    TITLE "Disc4Track42_12"
    INDEX 01 00:20:42
  TRACK 13 AUDIO
    TITLE "Disc4Track42_13"
    INDEX 01 00:21:54
  TRACK 14 AUDIO
    TITLE "Disc4Track42_14"
    INDEX 01 00:23:03
  TRACK 15 AUDIO
    TITLE "Disc4Track42_15"
    INDEX 01 00:27:33
  TRACK 16 AUDIO
    TITLE "Disc4Track42_16"
    INDEX 01 00:27:62
  TRACK 17 AUDIO
    TITLE "Disc4Track42_17"
    INDEX 01 00:29:16
  TRACK 18 AUDIO
    TITLE "Disc4Track42_18"
    INDEX 01 00:30:39
  TRACK 19 AUDIO
    TITLE "Disc4Track42_19"
    INDEX 01 00:31:64
  TRACK 20 AUDIO
    TITLE "Disc4Track42_20"
    INDEX 01 00:32:30
  TRACK 21 AUDIO
    TITLE "Disc4Track42_21"
    INDEX 01 00:33:41
  TRACK 22 AUDIO
    TITLE "Disc4Track42_22"
    INDEX 01 00:34:46
  TRACK 23 AUDIO
    TITLE "Disc4Track42_23"
    INDEX 01 00:35:56
  TRACK 24 AUDIO
    TITLE "Disc4Track42_24"
    INDEX 01 00:41:58
  TRACK 25 AUDIO
    TITLE "Disc4Track42_25"
    INDEX 01 00:42:15
  TRACK 26 AUDIO
    TITLE "Disc4Track42_26"
    INDEX 01 00:43:45
  TRACK 27 AUDIO
    TITLE "Disc4Track42_27"
    INDEX 01 00:45:19
  TRACK 28 AUDIO
    TITLE "Disc4Track42_28"
    INDEX 01 00:46:50
  TRACK 29 AUDIO
    TITLE "Disc4Track42_29"
    INDEX 01 00:49:01
  TRACK 30 AUDIO
    TITLE "Disc4Track42_30"
    INDEX 01 00:49:38
  TRACK 31 AUDIO
    TITLE "Disc4Track42_31"
    INDEX 01 00:50:57
  TRACK 32 AUDIO
    TITLE "Disc4Track42_32"
    INDEX 01 00:53:48
  TRACK 33 AUDIO
    TITLE "Disc4Track42_33"
    INDEX 01 00:54:63
  TRACK 34 AUDIO
    TITLE "Disc4Track42_34"
    INDEX 01 00:59:44
  TRACK 35 AUDIO
    TITLE "Disc4Track42_35"
    INDEX 01 01:00:01
  TRACK 36 AUDIO
    TITLE "Disc4Track42_36"
    INDEX 01 01:01:20
  TRACK 37 AUDIO
    TITLE "Disc4Track42_37"
    INDEX 01 01:03:01
  TRACK 38 AUDIO
    TITLE "Disc4Track42_38"
    INDEX 01 01:04:20
  TRACK 39 AUDIO
    TITLE "Disc4Track42_39"
    INDEX 01 01:10:09
  TRACK 40 AUDIO
    TITLE "Disc4Track42_40"
    INDEX 01 01:10:38
  TRACK 41 AUDIO
    TITLE "Disc4Track42_41"
    INDEX 01 01:11:52
  TRACK 42 AUDIO
    TITLE "Disc4Track42_42"
    INDEX 01 01:13:50
  TRACK 43 AUDIO
    TITLE "Disc4Track42_43"
    INDEX 01 01:14:66
  TRACK 44 AUDIO
    TITLE "Disc4Track42_44"
    INDEX 01 01:15:28
  TRACK 45 AUDIO
    TITLE "Disc4Track42_45"
    INDEX 01 01:17:52
  TRACK 46 AUDIO
    TITLE "Disc4Track42_46"
    INDEX 01 01:21:73
  TRACK 47 AUDIO
    TITLE "Disc4Track42_47"
    INDEX 01 01:24:23
  TRACK 48 AUDIO
    TITLE "Disc4Track42_48"
    INDEX 01 01:27:21
  TRACK 49 AUDIO
    TITLE "Disc4Track42_49"
    INDEX 01 01:27:51
  TRACK 50 AUDIO
    TITLE "Disc4Track42_50"
    INDEX 01 01:28:62
  TRACK 51 AUDIO
    TITLE "Disc4Track42_51"
    INDEX 01 01:31:68
  TRACK 52 AUDIO
    TITLE "Disc4Track42_52"
    INDEX 01 01:33:02
  TRACK 53 AUDIO
    TITLE "Disc4Track42_53"
    INDEX 01 01:34:56
  TRACK 54 AUDIO
    TITLE "Disc4Track42_54"
    INDEX 01 01:35:13
  TRACK 55 AUDIO
    TITLE "Disc4Track42_55"
    INDEX 01 01:36:28
  TRACK 56 AUDIO
    TITLE "Disc4Track42_56"
    INDEX 01 01:38:35
  TRACK 57 AUDIO
    TITLE "Disc4Track42_57"
    INDEX 01 01:39:52
  TRACK 58 AUDIO
    TITLE "Disc4Track42_58"
    INDEX 01 01:42:25
